<?xml version="1.0" encoding="UTF-8" standalone="no"?>
<!-- Created with Inkscape (http://www.inkscape.org/) -->

<svg
   xmlns:osb="http://www.openswatchbook.org/uri/2009/osb"
   xmlns:dc="http://purl.org/dc/elements/1.1/"
   xmlns:cc="http://creativecommons.org/ns#"
   xmlns:rdf="http://www.w3.org/1999/02/22-rdf-syntax-ns#"
   xmlns:svg="http://www.w3.org/2000/svg"
   xmlns="http://www.w3.org/2000/svg"
   xmlns:sodipodi="http://sodipodi.sourceforge.net/DTD/sodipodi-0.dtd"
   xmlns:inkscape="http://www.inkscape.org/namespaces/inkscape"
   width="1500"
   height="744.09448"
   id="svg2"
   version="1.1"
   inkscape:version="0.48.2 r9819"
   sodipodi:docname="pall8.svg">
  <defs
     id="defs4">
    <linearGradient
       id="linearGradient7057"
       osb:paint="solid">
      <stop
         style="stop-color:#003035;stop-opacity:1;"
         offset="0"
         id="stop7059" />
    </linearGradient>
    <linearGradient
       id="linearGradient5563"
       osb:paint="solid">
      <stop
         style="stop-color:#003035;stop-opacity:1;"
         offset="0"
         id="stop5565" />
    </linearGradient>
    <linearGradient
       id="linearGradient3846"
       osb:paint="solid">
      <stop
         style="stop-color:#000000;stop-opacity:1;"
         offset="0"
         id="stop3848" />
    </linearGradient>
    <clipPath
       clipPathUnits="userSpaceOnUse"
       id="clipPath3795">
      <path
         sodipodi:type="arc"
         style="color:#000000;fill:#ff00ff;fill-opacity:1;fill-rule:nonzero;stroke-width:1;stroke-linecap:butt;stroke-linejoin:miter;stroke-miterlimit:4;stroke-opacity:1;stroke-dasharray:none;stroke-dashoffset:0;marker:none;visibility:visible;display:inline;overflow:visible;enable-background:accumulate"
         id="path3797"
         sodipodi:cx="397.14285"
         sodipodi:cy="409.50504"
         sodipodi:rx="135.71428"
         sodipodi:ry="137.14285"
         d="m 532.85713,409.50504 a 135.71428,137.14285 0 1 1 -271.42856,0 135.71428,137.14285 0 1 1 271.42856,0 z"
         transform="matrix(1,0,0,0.68144206,-4.2857143,182.6764)" />
    </clipPath>
  </defs>
  <sodipodi:namedview
     id="base"
     pagecolor="#ffffff"
     bordercolor="#666666"
     borderopacity="1.0"
     inkscape:pageopacity="0.0"
     inkscape:pageshadow="2"
     inkscape:zoom="0.5"
     inkscape:cx="587.37476"
     inkscape:cy="154.41664"
     inkscape:document-units="px"
     inkscape:current-layer="layer1"
     showgrid="true"
     inkscape:snap-global="true"
     inkscape:window-width="1680"
     inkscape:window-height="988"
     inkscape:window-x="-8"
     inkscape:window-y="-8"
     inkscape:window-maximized="1"
     showguides="true"
     inkscape:guide-bbox="true">
    <inkscape:grid
       type="xygrid"
       id="grid4604"
       empspacing="5"
       visible="true"
       enabled="true"
       snapvisiblegridlinesonly="true" />
  </sodipodi:namedview>
  <metadata
     id="metadata7">
    <rdf:RDF>
      <cc:Work
         rdf:about="">
        <dc:format>image/svg+xml</dc:format>
        <dc:type
           rdf:resource="http://purl.org/dc/dcmitype/StillImage" />
        <dc:title></dc:title>
      </cc:Work>
    </rdf:RDF>
  </metadata>
  <g
     inkscape:label="Calque 1"
     inkscape:groupmode="layer"
     id="layer1"
     transform="translate(0,-308.2677)">
    <path
       style="opacity:0.65116278;fill:#003035;fill-opacity:1;fill-rule:evenodd;stroke:none"
       d="m 320,244.09448 165,75 0,129.99927 90,35.00073 10,215 10,-215 90,-35.00073 0,-129.99927 155,-75 -170,60 -85,-45 -85,45 z"
       transform="translate(0,308.2677)"
       id="path5522"
       inkscape:connector-curvature="0"
       sodipodi:nodetypes="ccccccccccccc" />
    <path
       style="fill:none;stroke:#003035;stroke-width:25;stroke-linecap:square;stroke-linejoin:bevel;stroke-miterlimit:4;stroke-opacity:1;stroke-dasharray:none"
       d="m 685,757.36218 -100,-55 -100,55 0,115 100,60 100,-60 -100,60 -100,-60 0,-115 100,-55 z"
       id="path5256"
       inkscape:connector-curvature="0"
       sodipodi:nodetypes="ccccccccccc" />
    <path
       style="fill:none;stroke:#003035;stroke-width:25;stroke-linecap:square;stroke-linejoin:bevel;stroke-miterlimit:4;stroke-opacity:1;stroke-dasharray:none"
       d="m 735,892.36218 0,-90 0,90 70,40 70,-40 0,-90 0,90 -70,40 z"
       id="path5294"
       inkscape:connector-curvature="0"
       sodipodi:nodetypes="ccccccccc" />
    <path
       style="fill:none;stroke:#003035;stroke-width:25;stroke-linecap:square;stroke-linejoin:bevel;stroke-miterlimit:4;stroke-opacity:1;stroke-dasharray:none"
       d="m 925,687.36218 0,205 70,40 70,-40 0,-80 -70,-40 -70,40 z"
       id="path5305"
       inkscape:connector-curvature="0" />
    <path
       style="fill:none;stroke:#003035;stroke-width:25;stroke-linecap:square;stroke-linejoin:bevel;stroke-miterlimit:4;stroke-opacity:1;stroke-dasharray:none"
       d="m 1240,812.36218 -65,-40 -60,40 0,80 59.85,42.75 65.15,-42.75 -65.15,42.75 -59.85,-42.75 0,-40 65,0 -65,0 0,-40 60,-40 z"
       id="path4698"
       inkscape:connector-curvature="0"
       sodipodi:nodetypes="cccccccccccccc" />
    <path
       style="fill:none;stroke:#003035;stroke-width:25;stroke-linecap:square;stroke-linejoin:bevel;stroke-miterlimit:4;stroke-opacity:1;stroke-dasharray:none"
       d="m 1430,812.36218 -70,-40 -70,40 0,40 140,0 0,40 -70,40 -70,-40 70,40 70,-40 0,-40 -140,0 0,-40 70,-40 z"
       id="path5350"
       inkscape:connector-curvature="0"
       sodipodi:nodetypes="ccccccccccccccc" />
    <path
       sodipodi:type="star"
       style="color:#000000;fill:#20002c;fill-opacity:0;fill-rule:nonzero;stroke:#003035;stroke-width:25;stroke-linecap:square;stroke-linejoin:bevel;stroke-miterlimit:4;stroke-opacity:1;stroke-dasharray:none;stroke-dashoffset:0;marker:none;visibility:visible;display:inline;overflow:visible;enable-background:accumulate"
       id="path4600"
       sodipodi:sides="6"
       sodipodi:cx="46.42857"
       sodipodi:cy="11.951625"
       sodipodi:r1="116.76988"
       sodipodi:r2="101.12568"
       sodipodi:arg1="0.51838739"
       sodipodi:arg2="1.0419862"
       inkscape:flatsided="true"
       inkscape:rounded="0"
       inkscape:randomized="0"
       d="M 147.85715,69.808771 47.0371,128.71992 -54.391476,70.862776 -55.000006,-45.905521 45.82004,-104.81667 147.24862,-46.959526 z"
       transform="translate(217.9629,583.64226)" />
    <path
       style="fill:none;stroke:#003035;stroke-width:25;stroke-linecap:square;stroke-linejoin:bevel;stroke-miterlimit:4;stroke-opacity:1;stroke-dasharray:none"
       d="m 740,592.36218 -60,-40 -70,40 0,80 70,40 60,-40 -60,40 -70,-40 0,-40 64.125,-0.145 -64.125,0.145 0,-40 70,-40 z"
       id="path4698-4"
       inkscape:connector-curvature="0"
       sodipodi:nodetypes="cccccccccccccc" />
    <path
       style="fill:none;stroke:#003035;stroke-width:25;stroke-linecap:square;stroke-linejoin:bevel;stroke-miterlimit:4;stroke-opacity:1;stroke-dasharray:none"
       d="m 785,672.36218 0,-80 60.91875,-40 60.91875,40 0,80 0,-80 -60.91875,-40 -60.91875,40 z"
       id="path4708"
       inkscape:connector-curvature="0"
       sodipodi:nodetypes="ccccccccc" />
    <path
       sodipodi:nodetypes="cccccccc"
       inkscape:connector-curvature="0"
       id="path5435"
       d="m 415,592.36218 70,-40 70,40 0,80 -70,40 -70,-40 0,120 z"
       style="fill:none;stroke:#003035;stroke-width:25;stroke-linecap:square;stroke-linejoin:bevel;stroke-miterlimit:4;stroke-opacity:1;stroke-dasharray:none" />
    <path
       sodipodi:type="star"
       style="opacity:0.65116278000000005;color:#000000;fill:none;stroke:#003035;stroke-width:3;stroke-miterlimit:4;stroke-opacity:1;stroke-dasharray:none;marker:none;visibility:visible;display:inline;overflow:visible;enable-background:accumulate"
       id="path3795"
       sodipodi:sides="6"
       sodipodi:cx="585"
       sodipodi:cy="364.09448"
       sodipodi:r1="310"
       sodipodi:r2="268.46786"
       sodipodi:arg1="1.5707963"
       sodipodi:arg2="2.0943951"
       inkscape:flatsided="true"
       inkscape:rounded="0"
       inkscape:randomized="0"
       d="m 585.00001,674.09448 -268.46788,-154.99999 -10e-6,-310 268.46787,-155.000008 268.46788,154.999998 1e-5,310 z"
       transform="translate(-8.306418e-6,333.2677)" />
  </g>
</svg>
